<svg version="1" xmlns="http://www.w3.org/2000/svg" width="1365.333" height="1365.333" viewBox="0 0 1024.000000 1024.000000"><path d="M501.7 256.5c-.1.1-4.9.5-10.6.9-8.7.6-16.1 1.6-29.6 4-32 5.8-68 21.7-99.7 43.9-13 9.1-25.2 20.3-41.8 38.3-31.1 33.8-56.3 88.7-61.5 134.4-.3 3-.8 6.6-1 8-.2 1.4-.6 6.1-1 10.5s-.8 8.1-.8 8.2c-.1.1-16.6.4-36.7.7-58.8 1-126.9 2.4-148.5 3.1-39.5 1.4-53.5 2.3-53.5 3.6 0 .5 1.7.9 3.8 1 2 0 4.6.2 5.6.4 1.1.2 9.6.7 19 1 9.4.4 20 .8 23.6 1 3.6.2 22.9.6 43 1s41.5.8 47.5 1c88.4 2.5 597.4 2.5 707 0 7.2-.2 28.4-.6 47.1-.9 18.8-.4 36.8-.8 40-1.1 3.3-.2 13.8-.7 23.4-1 9.6-.3 18.4-.8 19.5-1 1.1-.2 3.7-.4 5.8-.4 2-.1 3.7-.5 3.7-1 0-2.4-53.2-4.2-202-6.7-19.5-.3-35.6-.7-35.7-.7-.1-.1-.4-3.4-.8-7.2-1.9-21.5-3.6-31.9-7.9-48.8-9.9-38.4-29.8-76.4-54.6-104.1-25.9-29-51-47.8-86.3-64.6-23.6-11.3-54.6-19.7-82.9-22.5-6.3-.7-33.5-1.4-34.1-1z"/></svg>